PathFileType	4	(X/Y/Z)	C:/ViconProjects/foot_20160225/trc/2_test01_dynamic.trc
DataRate	CameraRate	NumFrames	NumMarkers	Units	OrigDataRate	OrigDataStartFrame	OrigNumFrames
120.000000	120.000000	4	39	mm	120.000000	171	682
Frame#	Time	RCUNE			RNAVI			RMT3			LCUNE			LNAVI			LMT3			ROHEL			RIHEL			LOHEL			LIHEL			RSHAN			LSHAN			RTHI			LTHI			ROWR			RELB			RBSH			LOWR			LELB			LBSH			RHEAD			THEAD			FHEAD			T10			RTOE			RHEL			RMT1			RMT5			RANK			RKNE			LTOE			LHEL			LMT1			LMT5			LANK			LKNE			VBWT			RFWT			LFWT			
		X0	Y0	Z0	X1	Y1	Z1	X2	Y2	Z2	X3	Y3	Z3	X4	Y4	Z4	X5	Y5	Z5	X6	Y6	Z6	X7	Y7	Z7	X8	Y8	Z8	X9	Y9	Z9	X10	Y10	Z10	X11	Y11	Z11	X12	Y12	Z12	X13	Y13	Z13	X14	Y14	Z14	X15	Y15	Z15	X16	Y16	Z16	X17	Y17	Z17	X18	Y18	Z18	X19	Y19	Z19	X20	Y20	Z20	X21	Y21	Z21	X22	Y22	Z22	X23	Y23	Z23	X24	Y24	Z24	X25	Y25	Z25	X26	Y26	Z26	X27	Y27	Z27	X28	Y28	Z28	X29	Y29	Z29	X30	Y30	Z30	X31	Y31	Z31	X32	Y32	Z32	X33	Y33	Z33	X34	Y34	Z34	X35	Y35	Z35	X36	Y36	Z36	X37	Y37	Z37	X38	Y38	Z38	
171	1.425000	2462.046875	332.203949	43.422600	2448.168701	232.684265	61.979309	2358.032227	306.541718	49.109959	2458.704102	-57.049080	43.562149	2436.235352	41.944099	56.671360	2357.080322	-42.140091	51.509640	2538.697266	304.462585	51.024269	2525.031006	230.312408	48.842720	2534.098389	-26.701790	53.755520	2520.364990	46.587811	48.495979	2431.045898	239.222076	235.936005	2390.900391	32.984379	324.345795	2328.749756	246.230774	575.644714	2295.725830	19.977020	627.907654	2290.294922	380.600494	861.989075	2405.241455	416.866394	1095.301270	2391.365723	326.198578	1425.175659	2311.268555	-150.913300	860.890442	2407.066650	-171.138000	1099.705566	2388.475342	-84.573662	1426.240356	2433.863525	131.657318	1677.045288	2315.247314	130.180527	1726.559204	2219.702637	121.014183	1625.306152	2543.266846	61.653191	1283.562744	2309.059326	287.414856	45.270210	2566.886719	259.654663	48.785900	2350.240967	270.812927	55.844479	2395.917480	347.616821	43.441540	2501.322021	320.668762	76.059631	2410.264893	302.197205	471.014832	2308.950195	-18.710470	44.903961	2558.279053	14.758470	50.784630	2343.846436	-4.570500	52.466930	2397.751465	-69.014397	48.282360	2494.135986	-44.497650	73.082832	2386.735352	-37.089630	469.843597	2559.376709	124.118950	954.433350	2335.332275	274.790070	956.813416	2330.736572	-14.604900	957.712341
172	1.433333	2462.114502	332.280823	43.401611	2448.245850	232.788162	62.057499	2358.303467	306.573212	49.383701	2458.939453	-57.219151	43.651192	2436.335449	41.899059	56.795792	2357.346680	-42.179722	51.866482	2538.743896	304.472015	50.965199	2525.178467	230.316513	48.873409	2534.214844	-26.703890	53.662849	2521.103271	45.104149	49.236519	2431.172607	239.157227	235.882996	2389.249268	32.364311	324.027954	2328.633789	245.907639	575.610962	2294.153564	19.376619	627.676392	2288.662354	379.727570	861.640442	2403.451904	415.980713	1095.243530	2389.508057	325.223572	1424.845337	2311.770996	-152.401794	860.579773	2406.660889	-171.506714	1099.841309	2386.826172	-85.136673	1426.127075	2432.515869	130.822540	1676.789673	2314.173584	129.785065	1726.747437	2217.608643	119.731178	1625.727173	2541.746826	60.673882	1283.557495	2309.104492	287.457855	45.509312	2566.956543	259.752777	48.736099	2350.383301	270.917786	56.073380	2396.021729	347.540466	43.489040	2503.495605	322.668427	77.291946	2410.239746	302.015228	470.961975	2309.403564	-18.715040	45.630638	2558.470459	14.657750	50.799320	2344.353516	-4.791870	52.999859	2397.999756	-68.833473	48.640228	2494.303955	-44.560131	72.971474	2384.755127	-37.396042	469.645813	2558.565918	123.090477	954.663879	2334.052979	273.638092	956.640015	2330.556152	-15.131940	957.548889
173	1.441667	2462.241455	332.288300	43.442360	2448.934570	233.085922	62.102020	2358.526611	306.726379	49.584721	2458.940186	-57.224339	43.706059	2436.326660	41.737041	56.870022	2357.495117	-42.066650	51.974220	2538.810547	304.483215	50.856159	2525.206299	230.402847	48.856220	2534.254883	-26.730360	53.603748	2521.267090	45.156212	49.308670	2431.218262	239.139526	235.863007	2387.908203	32.351719	323.594604	2328.649902	245.272217	575.483276	2293.293701	19.086189	627.547180	2287.679688	379.041351	861.446838	2401.709229	414.973053	1095.140869	2387.792236	324.378235	1424.694458	2312.230469	-154.532852	860.304260	2405.692139	-172.574783	1099.945068	2384.991699	-85.761879	1425.956421	2431.238037	130.167755	1676.413940	2312.664551	128.871277	1726.654419	2215.974854	119.561157	1626.137329	2539.944092	60.078709	1283.714233	2309.316895	287.544678	45.745232	2567.058838	259.805511	48.654251	2350.526855	271.119019	56.250340	2396.064941	347.554871	43.484921	2501.683105	320.911072	76.064819	2410.178955	301.761353	470.903870	2309.622803	-17.844330	47.027950	2558.558105	14.586640	50.771580	2344.509766	-4.836850	53.269619	2398.114502	-68.730537	48.729221	2494.363770	-44.654591	73.072906	2382.648193	-37.796360	469.155151	2557.758057	122.275192	954.885071	2332.318604	272.881500	956.398926	2330.170654	-16.042749	956.732605
174	1.450000	2462.453369	332.385284	43.549210	2448.691650	232.978317	62.223530	2358.668457	306.848297	49.719120	2458.959473	-57.335320	43.822170	2436.319580	41.972481	57.237228	2357.540527	-42.064339	52.086411	2538.860840	304.478210	50.779999	2525.305176	230.457642	48.848961	2534.205078	-26.819590	53.538120	2520.587402	46.464458	48.648060	2431.287109	239.103775	235.830429	2386.625488	32.325260	323.330658	2328.587158	244.766785	575.177368	2291.165527	18.794130	626.996094	2286.468018	378.861816	861.628723	2400.612549	414.908478	1095.130493	2386.154785	323.812408	1424.664307	2312.482422	-155.655167	860.283020	2405.372803	-173.546432	1100.006958	2383.037109	-86.547707	1425.870850	2429.812988	129.527512	1676.104004	2311.652588	128.073914	1726.558716	2214.010986	118.756897	1626.177124	2538.483398	59.253891	1283.896240	2310.035645	287.842377	46.717831	2567.174072	259.800262	48.652420	2350.610596	271.324219	56.426579	2396.149658	347.582397	43.471340	2501.820557	321.003998	76.057159	2410.168945	301.536438	471.042450	2309.728760	-17.721100	47.322689	2558.512695	14.553610	50.791611	2344.591064	-5.012180	53.430462	2398.198242	-68.653008	48.861610	2493.691895	-43.690540	72.152130	2380.420898	-38.084202	468.132813	2556.769287	121.263031	955.118042	2332.006348	272.377594	956.151978	2328.510254	-17.533230	955.897888
